<mxfile host="app.diagrams.net" agent="Mozilla/5.0 (Windows NT 10.0; Win64; x64) AppleWebKit/537.36 (KHTML, like Gecko) Chrome/137.0.0.0 Safari/537.36" version="27.1.0">
  <diagram name="PÃ¡gina-1" id="taPtm6CdufuRy_zjicpt">
    <mxGraphModel grid="1" page="1" gridSize="10" guides="1" tooltips="1" connect="1" arrows="1" fold="1" pageScale="1" pageWidth="827" pageHeight="1169" math="0" shadow="0">
      <root>
        <mxCell id="0" />
        <mxCell id="1" parent="0" />
        <mxCell id="s1E7Z7htaCoj7KjWzEhG-13" value="" style="endArrow=none;html=1;rounded=0;entryX=0;entryY=0.5;entryDx=0;entryDy=0;" edge="1" parent="1" source="s1E7Z7htaCoj7KjWzEhG-25" target="s1E7Z7htaCoj7KjWzEhG-21">
          <mxGeometry width="50" height="50" relative="1" as="geometry">
            <mxPoint x="-40" y="370" as="sourcePoint" />
            <mxPoint x="420" y="370" as="targetPoint" />
          </mxGeometry>
        </mxCell>
        <mxCell id="s1E7Z7htaCoj7KjWzEhG-16" value="" style="endArrow=none;html=1;rounded=0;exitX=0;exitY=0;exitDx=0;exitDy=0;" edge="1" parent="1" source="s1E7Z7htaCoj7KjWzEhG-22" target="s1E7Z7htaCoj7KjWzEhG-15">
          <mxGeometry width="50" height="50" relative="1" as="geometry">
            <mxPoint x="320" y="520" as="sourcePoint" />
            <mxPoint x="20" y="220" as="targetPoint" />
          </mxGeometry>
        </mxCell>
        <mxCell id="s1E7Z7htaCoj7KjWzEhG-15" value="" style="ellipse;whiteSpace=wrap;html=1;aspect=fixed;fillColor=#ffe6cc;strokeColor=#d79b00;" vertex="1" parent="1">
          <mxGeometry x="50" y="250" width="40" height="40" as="geometry" />
        </mxCell>
        <mxCell id="s1E7Z7htaCoj7KjWzEhG-18" value="" style="endArrow=none;html=1;rounded=0;exitX=0.5;exitY=0;exitDx=0;exitDy=0;" edge="1" parent="1" source="s1E7Z7htaCoj7KjWzEhG-23" target="s1E7Z7htaCoj7KjWzEhG-17">
          <mxGeometry width="50" height="50" relative="1" as="geometry">
            <mxPoint x="170" y="570" as="sourcePoint" />
            <mxPoint x="170" y="180" as="targetPoint" />
          </mxGeometry>
        </mxCell>
        <mxCell id="s1E7Z7htaCoj7KjWzEhG-17" value="" style="ellipse;whiteSpace=wrap;html=1;aspect=fixed;fillColor=#ffe6cc;strokeColor=#d79b00;" vertex="1" parent="1">
          <mxGeometry x="150" y="210" width="40" height="40" as="geometry" />
        </mxCell>
        <mxCell id="s1E7Z7htaCoj7KjWzEhG-20" value="" style="endArrow=none;html=1;rounded=0;exitX=1;exitY=0;exitDx=0;exitDy=0;" edge="1" parent="1" source="s1E7Z7htaCoj7KjWzEhG-24" target="s1E7Z7htaCoj7KjWzEhG-19">
          <mxGeometry width="50" height="50" relative="1" as="geometry">
            <mxPoint x="20" y="520" as="sourcePoint" />
            <mxPoint x="320" y="220" as="targetPoint" />
          </mxGeometry>
        </mxCell>
        <mxCell id="s1E7Z7htaCoj7KjWzEhG-19" value="" style="ellipse;whiteSpace=wrap;html=1;aspect=fixed;fillColor=#ffe6cc;strokeColor=#d79b00;" vertex="1" parent="1">
          <mxGeometry x="250" y="250" width="40" height="40" as="geometry" />
        </mxCell>
        <mxCell id="s1E7Z7htaCoj7KjWzEhG-21" value="" style="ellipse;whiteSpace=wrap;html=1;aspect=fixed;fillColor=#ffe6cc;strokeColor=#d79b00;" vertex="1" parent="1">
          <mxGeometry x="290" y="350" width="40" height="40" as="geometry" />
        </mxCell>
        <mxCell id="s1E7Z7htaCoj7KjWzEhG-22" value="" style="ellipse;whiteSpace=wrap;html=1;aspect=fixed;fillColor=#ffe6cc;strokeColor=#d79b00;" vertex="1" parent="1">
          <mxGeometry x="250" y="450" width="40" height="40" as="geometry" />
        </mxCell>
        <mxCell id="s1E7Z7htaCoj7KjWzEhG-23" value="" style="ellipse;whiteSpace=wrap;html=1;aspect=fixed;fillColor=#ffe6cc;strokeColor=#d79b00;" vertex="1" parent="1">
          <mxGeometry x="150" y="490" width="40" height="40" as="geometry" />
        </mxCell>
        <mxCell id="s1E7Z7htaCoj7KjWzEhG-24" value="" style="ellipse;whiteSpace=wrap;html=1;aspect=fixed;fillColor=#ffe6cc;strokeColor=#d79b00;" vertex="1" parent="1">
          <mxGeometry x="50" y="450" width="40" height="40" as="geometry" />
        </mxCell>
        <mxCell id="s1E7Z7htaCoj7KjWzEhG-25" value="" style="ellipse;whiteSpace=wrap;html=1;aspect=fixed;fillColor=#ffe6cc;strokeColor=#d79b00;" vertex="1" parent="1">
          <mxGeometry x="10" y="350" width="40" height="40" as="geometry" />
        </mxCell>
        <mxCell id="s1E7Z7htaCoj7KjWzEhG-27" value="" style="endArrow=none;html=1;rounded=0;exitX=1;exitY=0;exitDx=0;exitDy=0;entryX=1;entryY=0.5;entryDx=0;entryDy=0;" edge="1" parent="1" source="s1E7Z7htaCoj7KjWzEhG-24" target="s1E7Z7htaCoj7KjWzEhG-25">
          <mxGeometry width="50" height="50" relative="1" as="geometry">
            <mxPoint x="110" y="592" as="sourcePoint" />
            <mxPoint x="282" y="420" as="targetPoint" />
          </mxGeometry>
        </mxCell>
        <mxCell id="s1E7Z7htaCoj7KjWzEhG-28" value="" style="endArrow=none;html=1;rounded=0;exitX=1;exitY=0;exitDx=0;exitDy=0;entryX=1;entryY=1;entryDx=0;entryDy=0;" edge="1" parent="1" source="s1E7Z7htaCoj7KjWzEhG-24" target="s1E7Z7htaCoj7KjWzEhG-15">
          <mxGeometry width="50" height="50" relative="1" as="geometry">
            <mxPoint x="94" y="496" as="sourcePoint" />
            <mxPoint x="60" y="410" as="targetPoint" />
          </mxGeometry>
        </mxCell>
        <mxCell id="s1E7Z7htaCoj7KjWzEhG-29" value="" style="endArrow=none;html=1;rounded=0;exitX=0.5;exitY=1;exitDx=0;exitDy=0;entryX=1;entryY=0;entryDx=0;entryDy=0;" edge="1" parent="1" source="s1E7Z7htaCoj7KjWzEhG-17" target="s1E7Z7htaCoj7KjWzEhG-24">
          <mxGeometry width="50" height="50" relative="1" as="geometry">
            <mxPoint x="80" y="502" as="sourcePoint" />
            <mxPoint x="80" y="330" as="targetPoint" />
          </mxGeometry>
        </mxCell>
        <mxCell id="s1E7Z7htaCoj7KjWzEhG-30" value="" style="endArrow=none;html=1;rounded=0;exitX=0;exitY=0.5;exitDx=0;exitDy=0;entryX=1;entryY=0;entryDx=0;entryDy=0;" edge="1" parent="1" source="s1E7Z7htaCoj7KjWzEhG-21" target="s1E7Z7htaCoj7KjWzEhG-24">
          <mxGeometry width="50" height="50" relative="1" as="geometry">
            <mxPoint x="206" y="360" as="sourcePoint" />
            <mxPoint x="120" y="566" as="targetPoint" />
          </mxGeometry>
        </mxCell>
        <mxCell id="s1E7Z7htaCoj7KjWzEhG-31" value="" style="endArrow=none;html=1;rounded=0;exitX=0;exitY=0;exitDx=0;exitDy=0;entryX=1;entryY=0;entryDx=0;entryDy=0;" edge="1" parent="1" source="s1E7Z7htaCoj7KjWzEhG-22" target="s1E7Z7htaCoj7KjWzEhG-24">
          <mxGeometry width="50" height="50" relative="1" as="geometry">
            <mxPoint x="306" y="450" as="sourcePoint" />
            <mxPoint x="100" y="536" as="targetPoint" />
          </mxGeometry>
        </mxCell>
        <mxCell id="s1E7Z7htaCoj7KjWzEhG-32" value="" style="endArrow=none;html=1;rounded=0;exitX=0.5;exitY=0;exitDx=0;exitDy=0;entryX=1;entryY=0;entryDx=0;entryDy=0;" edge="1" parent="1" source="s1E7Z7htaCoj7KjWzEhG-23" target="s1E7Z7htaCoj7KjWzEhG-24">
          <mxGeometry width="50" height="50" relative="1" as="geometry">
            <mxPoint x="302" y="470" as="sourcePoint" />
            <mxPoint x="130" y="470" as="targetPoint" />
          </mxGeometry>
        </mxCell>
        <mxCell id="s1E7Z7htaCoj7KjWzEhG-33" value="" style="endArrow=none;html=1;rounded=0;exitX=0.5;exitY=0;exitDx=0;exitDy=0;entryX=0;entryY=0;entryDx=0;entryDy=0;" edge="1" parent="1" source="s1E7Z7htaCoj7KjWzEhG-23" target="s1E7Z7htaCoj7KjWzEhG-22">
          <mxGeometry width="50" height="50" relative="1" as="geometry">
            <mxPoint x="216" y="504" as="sourcePoint" />
            <mxPoint x="130" y="470" as="targetPoint" />
          </mxGeometry>
        </mxCell>
        <mxCell id="s1E7Z7htaCoj7KjWzEhG-34" value="" style="endArrow=none;html=1;rounded=0;exitX=0.5;exitY=0;exitDx=0;exitDy=0;entryX=0;entryY=0.5;entryDx=0;entryDy=0;" edge="1" parent="1" source="s1E7Z7htaCoj7KjWzEhG-23" target="s1E7Z7htaCoj7KjWzEhG-21">
          <mxGeometry width="50" height="50" relative="1" as="geometry">
            <mxPoint x="210" y="494" as="sourcePoint" />
            <mxPoint x="296" y="460" as="targetPoint" />
          </mxGeometry>
        </mxCell>
        <mxCell id="s1E7Z7htaCoj7KjWzEhG-35" value="" style="endArrow=none;html=1;rounded=0;exitX=0.5;exitY=0;exitDx=0;exitDy=0;entryX=0;entryY=1;entryDx=0;entryDy=0;" edge="1" parent="1" source="s1E7Z7htaCoj7KjWzEhG-23" target="s1E7Z7htaCoj7KjWzEhG-19">
          <mxGeometry width="50" height="50" relative="1" as="geometry">
            <mxPoint x="240" y="550" as="sourcePoint" />
            <mxPoint x="360" y="430" as="targetPoint" />
          </mxGeometry>
        </mxCell>
        <mxCell id="s1E7Z7htaCoj7KjWzEhG-36" value="" style="endArrow=none;html=1;rounded=0;exitX=0.5;exitY=0;exitDx=0;exitDy=0;entryX=1;entryY=1;entryDx=0;entryDy=0;" edge="1" parent="1" source="s1E7Z7htaCoj7KjWzEhG-23" target="s1E7Z7htaCoj7KjWzEhG-15">
          <mxGeometry width="50" height="50" relative="1" as="geometry">
            <mxPoint x="260" y="526" as="sourcePoint" />
            <mxPoint x="346" y="320" as="targetPoint" />
          </mxGeometry>
        </mxCell>
        <mxCell id="s1E7Z7htaCoj7KjWzEhG-37" value="" style="endArrow=none;html=1;rounded=0;exitX=0.5;exitY=0;exitDx=0;exitDy=0;entryX=1;entryY=0.5;entryDx=0;entryDy=0;" edge="1" parent="1" source="s1E7Z7htaCoj7KjWzEhG-23" target="s1E7Z7htaCoj7KjWzEhG-25">
          <mxGeometry width="50" height="50" relative="1" as="geometry">
            <mxPoint x="296" y="536" as="sourcePoint" />
            <mxPoint x="210" y="330" as="targetPoint" />
          </mxGeometry>
        </mxCell>
        <mxCell id="s1E7Z7htaCoj7KjWzEhG-38" value="" style="endArrow=none;html=1;rounded=0;exitX=0;exitY=0.5;exitDx=0;exitDy=0;entryX=0;entryY=0;entryDx=0;entryDy=0;" edge="1" parent="1" source="s1E7Z7htaCoj7KjWzEhG-21" target="s1E7Z7htaCoj7KjWzEhG-22">
          <mxGeometry width="50" height="50" relative="1" as="geometry">
            <mxPoint x="336" y="656" as="sourcePoint" />
            <mxPoint x="250" y="450" as="targetPoint" />
          </mxGeometry>
        </mxCell>
        <mxCell id="s1E7Z7htaCoj7KjWzEhG-39" value="" style="endArrow=none;html=1;rounded=0;exitX=0;exitY=1;exitDx=0;exitDy=0;entryX=0;entryY=0;entryDx=0;entryDy=0;" edge="1" parent="1" source="s1E7Z7htaCoj7KjWzEhG-19" target="s1E7Z7htaCoj7KjWzEhG-22">
          <mxGeometry width="50" height="50" relative="1" as="geometry">
            <mxPoint x="314" y="370" as="sourcePoint" />
            <mxPoint x="280" y="456" as="targetPoint" />
          </mxGeometry>
        </mxCell>
        <mxCell id="s1E7Z7htaCoj7KjWzEhG-40" value="" style="endArrow=none;html=1;rounded=0;exitX=0;exitY=0;exitDx=0;exitDy=0;entryX=0.5;entryY=1;entryDx=0;entryDy=0;" edge="1" parent="1" source="s1E7Z7htaCoj7KjWzEhG-22" target="s1E7Z7htaCoj7KjWzEhG-17">
          <mxGeometry width="50" height="50" relative="1" as="geometry">
            <mxPoint x="260" y="380" as="sourcePoint" />
            <mxPoint x="260" y="552" as="targetPoint" />
          </mxGeometry>
        </mxCell>
        <mxCell id="s1E7Z7htaCoj7KjWzEhG-41" value="" style="endArrow=none;html=1;rounded=0;exitX=0;exitY=0;exitDx=0;exitDy=0;entryX=1;entryY=0.5;entryDx=0;entryDy=0;" edge="1" parent="1" source="s1E7Z7htaCoj7KjWzEhG-22" target="s1E7Z7htaCoj7KjWzEhG-25">
          <mxGeometry width="50" height="50" relative="1" as="geometry">
            <mxPoint x="316" y="576" as="sourcePoint" />
            <mxPoint x="230" y="370" as="targetPoint" />
          </mxGeometry>
        </mxCell>
        <mxCell id="s1E7Z7htaCoj7KjWzEhG-42" value="" style="endArrow=none;html=1;rounded=0;exitX=0;exitY=1;exitDx=0;exitDy=0;entryX=0;entryY=0.5;entryDx=0;entryDy=0;" edge="1" parent="1" source="s1E7Z7htaCoj7KjWzEhG-19" target="s1E7Z7htaCoj7KjWzEhG-21">
          <mxGeometry width="50" height="50" relative="1" as="geometry">
            <mxPoint x="266" y="456" as="sourcePoint" />
            <mxPoint x="250" y="550" as="targetPoint" />
          </mxGeometry>
        </mxCell>
        <mxCell id="s1E7Z7htaCoj7KjWzEhG-43" value="" style="endArrow=none;html=1;rounded=0;exitX=0;exitY=0.5;exitDx=0;exitDy=0;entryX=1;entryY=1;entryDx=0;entryDy=0;" edge="1" parent="1" source="s1E7Z7htaCoj7KjWzEhG-21" target="s1E7Z7htaCoj7KjWzEhG-15">
          <mxGeometry width="50" height="50" relative="1" as="geometry">
            <mxPoint x="260" y="300" as="sourcePoint" />
            <mxPoint x="80" y="290" as="targetPoint" />
          </mxGeometry>
        </mxCell>
        <mxCell id="s1E7Z7htaCoj7KjWzEhG-44" value="" style="endArrow=none;html=1;rounded=0;exitX=0;exitY=0.5;exitDx=0;exitDy=0;entryX=0.5;entryY=1;entryDx=0;entryDy=0;" edge="1" parent="1" source="s1E7Z7htaCoj7KjWzEhG-21" target="s1E7Z7htaCoj7KjWzEhG-17">
          <mxGeometry width="50" height="50" relative="1" as="geometry">
            <mxPoint x="326" y="386" as="sourcePoint" />
            <mxPoint x="120" y="300" as="targetPoint" />
          </mxGeometry>
        </mxCell>
        <mxCell id="s1E7Z7htaCoj7KjWzEhG-45" value="" style="endArrow=none;html=1;rounded=0;exitX=0;exitY=1;exitDx=0;exitDy=0;" edge="1" parent="1" source="s1E7Z7htaCoj7KjWzEhG-19">
          <mxGeometry width="50" height="50" relative="1" as="geometry">
            <mxPoint x="270" y="320" as="sourcePoint" />
            <mxPoint x="170" y="250" as="targetPoint" />
          </mxGeometry>
        </mxCell>
        <mxCell id="s1E7Z7htaCoj7KjWzEhG-46" value="" style="endArrow=none;html=1;rounded=0;exitX=0;exitY=1;exitDx=0;exitDy=0;entryX=1;entryY=1;entryDx=0;entryDy=0;" edge="1" parent="1" source="s1E7Z7htaCoj7KjWzEhG-19" target="s1E7Z7htaCoj7KjWzEhG-15">
          <mxGeometry width="50" height="50" relative="1" as="geometry">
            <mxPoint x="316" y="314" as="sourcePoint" />
            <mxPoint x="230" y="280" as="targetPoint" />
          </mxGeometry>
        </mxCell>
        <mxCell id="s1E7Z7htaCoj7KjWzEhG-47" value="" style="endArrow=none;html=1;rounded=0;exitX=0;exitY=1;exitDx=0;exitDy=0;entryX=1;entryY=0.5;entryDx=0;entryDy=0;" edge="1" parent="1" source="s1E7Z7htaCoj7KjWzEhG-19" target="s1E7Z7htaCoj7KjWzEhG-25">
          <mxGeometry width="50" height="50" relative="1" as="geometry">
            <mxPoint x="312" y="280" as="sourcePoint" />
            <mxPoint x="140" y="280" as="targetPoint" />
          </mxGeometry>
        </mxCell>
        <mxCell id="s1E7Z7htaCoj7KjWzEhG-48" value="" style="endArrow=none;html=1;rounded=0;exitX=1;exitY=1;exitDx=0;exitDy=0;entryX=0.5;entryY=1;entryDx=0;entryDy=0;" edge="1" parent="1" source="s1E7Z7htaCoj7KjWzEhG-15" target="s1E7Z7htaCoj7KjWzEhG-17">
          <mxGeometry width="50" height="50" relative="1" as="geometry">
            <mxPoint x="296" y="294" as="sourcePoint" />
            <mxPoint x="210" y="260" as="targetPoint" />
          </mxGeometry>
        </mxCell>
        <mxCell id="s1E7Z7htaCoj7KjWzEhG-49" value="" style="endArrow=none;html=1;rounded=0;exitX=1;exitY=0.5;exitDx=0;exitDy=0;entryX=0.5;entryY=1;entryDx=0;entryDy=0;" edge="1" parent="1" source="s1E7Z7htaCoj7KjWzEhG-25" target="s1E7Z7htaCoj7KjWzEhG-17">
          <mxGeometry width="50" height="50" relative="1" as="geometry">
            <mxPoint x="140" y="284" as="sourcePoint" />
            <mxPoint x="226" y="250" as="targetPoint" />
          </mxGeometry>
        </mxCell>
        <mxCell id="s1E7Z7htaCoj7KjWzEhG-50" value="" style="endArrow=none;html=1;rounded=0;exitX=1;exitY=1;exitDx=0;exitDy=0;entryX=1;entryY=0.5;entryDx=0;entryDy=0;" edge="1" parent="1" source="s1E7Z7htaCoj7KjWzEhG-15" target="s1E7Z7htaCoj7KjWzEhG-25">
          <mxGeometry width="50" height="50" relative="1" as="geometry">
            <mxPoint x="110" y="294" as="sourcePoint" />
            <mxPoint x="196" y="260" as="targetPoint" />
          </mxGeometry>
        </mxCell>
        <mxCell id="s1E7Z7htaCoj7KjWzEhG-52" value="" style="ellipse;whiteSpace=wrap;html=1;aspect=fixed;fillColor=#ffe6cc;strokeColor=#d79b00;" vertex="1" parent="1">
          <mxGeometry x="570" y="220" width="40" height="40" as="geometry" />
        </mxCell>
        <mxCell id="s1E7Z7htaCoj7KjWzEhG-53" value="" style="ellipse;whiteSpace=wrap;html=1;aspect=fixed;fillColor=#ffe6cc;strokeColor=#d79b00;" vertex="1" parent="1">
          <mxGeometry x="410" y="390" width="40" height="40" as="geometry" />
        </mxCell>
        <mxCell id="s1E7Z7htaCoj7KjWzEhG-54" value="" style="ellipse;whiteSpace=wrap;html=1;aspect=fixed;fillColor=#ffe6cc;strokeColor=#d79b00;" vertex="1" parent="1">
          <mxGeometry x="680" y="290" width="40" height="40" as="geometry" />
        </mxCell>
        <mxCell id="s1E7Z7htaCoj7KjWzEhG-55" value="" style="ellipse;whiteSpace=wrap;html=1;aspect=fixed;fillColor=#ffe6cc;strokeColor=#d79b00;" vertex="1" parent="1">
          <mxGeometry x="500" y="390" width="40" height="40" as="geometry" />
        </mxCell>
        <mxCell id="s1E7Z7htaCoj7KjWzEhG-56" value="" style="ellipse;whiteSpace=wrap;html=1;aspect=fixed;fillColor=#ffe6cc;strokeColor=#d79b00;" vertex="1" parent="1">
          <mxGeometry x="764" y="390" width="40" height="40" as="geometry" />
        </mxCell>
        <mxCell id="s1E7Z7htaCoj7KjWzEhG-57" value="" style="ellipse;whiteSpace=wrap;html=1;aspect=fixed;fillColor=#ffe6cc;strokeColor=#d79b00;" vertex="1" parent="1">
          <mxGeometry x="600" y="390" width="40" height="40" as="geometry" />
        </mxCell>
        <mxCell id="s1E7Z7htaCoj7KjWzEhG-58" value="" style="ellipse;whiteSpace=wrap;html=1;aspect=fixed;fillColor=#ffe6cc;strokeColor=#d79b00;" vertex="1" parent="1">
          <mxGeometry x="465" y="290" width="40" height="40" as="geometry" />
        </mxCell>
        <mxCell id="s1E7Z7htaCoj7KjWzEhG-62" value="" style="ellipse;whiteSpace=wrap;html=1;aspect=fixed;fillColor=#ffe6cc;strokeColor=#d79b00;" vertex="1" parent="1">
          <mxGeometry x="410" y="480" width="40" height="40" as="geometry" />
        </mxCell>
        <mxCell id="s1E7Z7htaCoj7KjWzEhG-63" value="" style="ellipse;whiteSpace=wrap;html=1;aspect=fixed;fillColor=#ffe6cc;strokeColor=#d79b00;" vertex="1" parent="1">
          <mxGeometry x="470" y="480" width="40" height="40" as="geometry" />
        </mxCell>
        <mxCell id="s1E7Z7htaCoj7KjWzEhG-64" value="" style="ellipse;whiteSpace=wrap;html=1;aspect=fixed;fillColor=#ffe6cc;strokeColor=#d79b00;" vertex="1" parent="1">
          <mxGeometry x="350" y="480" width="40" height="40" as="geometry" />
        </mxCell>
        <mxCell id="s1E7Z7htaCoj7KjWzEhG-65" value="" style="ellipse;whiteSpace=wrap;html=1;aspect=fixed;fillColor=#ffe6cc;strokeColor=#d79b00;" vertex="1" parent="1">
          <mxGeometry x="764" y="480" width="40" height="40" as="geometry" />
        </mxCell>
        <mxCell id="s1E7Z7htaCoj7KjWzEhG-66" value="" style="ellipse;whiteSpace=wrap;html=1;aspect=fixed;fillColor=#ffe6cc;strokeColor=#d79b00;" vertex="1" parent="1">
          <mxGeometry x="820" y="480" width="40" height="40" as="geometry" />
        </mxCell>
        <mxCell id="s1E7Z7htaCoj7KjWzEhG-67" value="" style="ellipse;whiteSpace=wrap;html=1;aspect=fixed;fillColor=#ffe6cc;strokeColor=#d79b00;" vertex="1" parent="1">
          <mxGeometry x="700" y="480" width="40" height="40" as="geometry" />
        </mxCell>
        <mxCell id="s1E7Z7htaCoj7KjWzEhG-69" value="" style="ellipse;whiteSpace=wrap;html=1;aspect=fixed;fillColor=#ffe6cc;strokeColor=#d79b00;" vertex="1" parent="1">
          <mxGeometry x="560" y="480" width="40" height="40" as="geometry" />
        </mxCell>
        <mxCell id="s1E7Z7htaCoj7KjWzEhG-70" value="" style="ellipse;whiteSpace=wrap;html=1;aspect=fixed;fillColor=#ffe6cc;strokeColor=#d79b00;" vertex="1" parent="1">
          <mxGeometry x="640" y="480" width="40" height="40" as="geometry" />
        </mxCell>
        <mxCell id="s1E7Z7htaCoj7KjWzEhG-71" value="" style="endArrow=none;html=1;rounded=0;exitX=0;exitY=1;exitDx=0;exitDy=0;entryX=1;entryY=0;entryDx=0;entryDy=0;" edge="1" parent="1" source="s1E7Z7htaCoj7KjWzEhG-52" target="s1E7Z7htaCoj7KjWzEhG-58">
          <mxGeometry width="50" height="50" relative="1" as="geometry">
            <mxPoint x="480" y="160" as="sourcePoint" />
            <mxPoint x="514" y="246" as="targetPoint" />
          </mxGeometry>
        </mxCell>
        <mxCell id="s1E7Z7htaCoj7KjWzEhG-72" value="" style="endArrow=none;html=1;rounded=0;exitX=0;exitY=1;exitDx=0;exitDy=0;entryX=0.5;entryY=0;entryDx=0;entryDy=0;" edge="1" parent="1" source="s1E7Z7htaCoj7KjWzEhG-58" target="s1E7Z7htaCoj7KjWzEhG-53">
          <mxGeometry width="50" height="50" relative="1" as="geometry">
            <mxPoint x="657" y="230" as="sourcePoint" />
            <mxPoint x="570" y="322" as="targetPoint" />
          </mxGeometry>
        </mxCell>
        <mxCell id="s1E7Z7htaCoj7KjWzEhG-73" value="" style="endArrow=none;html=1;rounded=0;exitX=1;exitY=1;exitDx=0;exitDy=0;entryX=0.5;entryY=0;entryDx=0;entryDy=0;" edge="1" parent="1" source="s1E7Z7htaCoj7KjWzEhG-58" target="s1E7Z7htaCoj7KjWzEhG-55">
          <mxGeometry width="50" height="50" relative="1" as="geometry">
            <mxPoint x="487" y="340" as="sourcePoint" />
            <mxPoint x="460" y="412" as="targetPoint" />
          </mxGeometry>
        </mxCell>
        <mxCell id="s1E7Z7htaCoj7KjWzEhG-74" value="" style="endArrow=none;html=1;rounded=0;exitX=0;exitY=1;exitDx=0;exitDy=0;entryX=0.5;entryY=0;entryDx=0;entryDy=0;" edge="1" parent="1" source="s1E7Z7htaCoj7KjWzEhG-53" target="s1E7Z7htaCoj7KjWzEhG-64">
          <mxGeometry width="50" height="50" relative="1" as="geometry">
            <mxPoint x="410" y="400" as="sourcePoint" />
            <mxPoint x="369" y="466" as="targetPoint" />
          </mxGeometry>
        </mxCell>
        <mxCell id="s1E7Z7htaCoj7KjWzEhG-75" value="" style="endArrow=none;html=1;rounded=0;exitX=0.5;exitY=1;exitDx=0;exitDy=0;entryX=0.5;entryY=0;entryDx=0;entryDy=0;" edge="1" parent="1" source="s1E7Z7htaCoj7KjWzEhG-53" target="s1E7Z7htaCoj7KjWzEhG-62">
          <mxGeometry width="50" height="50" relative="1" as="geometry">
            <mxPoint x="471" y="440" as="sourcePoint" />
            <mxPoint x="430" y="506" as="targetPoint" />
          </mxGeometry>
        </mxCell>
        <mxCell id="s1E7Z7htaCoj7KjWzEhG-76" value="" style="endArrow=none;html=1;rounded=0;exitX=1;exitY=1;exitDx=0;exitDy=0;entryX=0.5;entryY=0;entryDx=0;entryDy=0;" edge="1" parent="1" source="s1E7Z7htaCoj7KjWzEhG-53" target="s1E7Z7htaCoj7KjWzEhG-63">
          <mxGeometry width="50" height="50" relative="1" as="geometry">
            <mxPoint x="450" y="440" as="sourcePoint" />
            <mxPoint x="450" y="490" as="targetPoint" />
          </mxGeometry>
        </mxCell>
        <mxCell id="s1E7Z7htaCoj7KjWzEhG-77" value="" style="endArrow=none;html=1;rounded=0;exitX=0;exitY=1;exitDx=0;exitDy=0;entryX=0.5;entryY=0;entryDx=0;entryDy=0;" edge="1" parent="1" source="s1E7Z7htaCoj7KjWzEhG-57" target="s1E7Z7htaCoj7KjWzEhG-69">
          <mxGeometry width="50" height="50" relative="1" as="geometry">
            <mxPoint x="460" y="440" as="sourcePoint" />
            <mxPoint x="506" y="496" as="targetPoint" />
          </mxGeometry>
        </mxCell>
        <mxCell id="s1E7Z7htaCoj7KjWzEhG-78" value="" style="endArrow=none;html=1;rounded=0;exitX=1;exitY=1;exitDx=0;exitDy=0;entryX=0.5;entryY=0;entryDx=0;entryDy=0;" edge="1" parent="1" source="s1E7Z7htaCoj7KjWzEhG-57" target="s1E7Z7htaCoj7KjWzEhG-70">
          <mxGeometry width="50" height="50" relative="1" as="geometry">
            <mxPoint x="616" y="440" as="sourcePoint" />
            <mxPoint x="590" y="496" as="targetPoint" />
          </mxGeometry>
        </mxCell>
        <mxCell id="s1E7Z7htaCoj7KjWzEhG-79" value="" style="endArrow=none;html=1;rounded=0;exitX=1;exitY=0;exitDx=0;exitDy=0;entryX=0;entryY=1;entryDx=0;entryDy=0;" edge="1" parent="1" source="s1E7Z7htaCoj7KjWzEhG-57" target="s1E7Z7htaCoj7KjWzEhG-54">
          <mxGeometry width="50" height="50" relative="1" as="geometry">
            <mxPoint x="650" y="450" as="sourcePoint" />
            <mxPoint x="676" y="506" as="targetPoint" />
          </mxGeometry>
        </mxCell>
        <mxCell id="s1E7Z7htaCoj7KjWzEhG-80" value="" style="endArrow=none;html=1;rounded=0;exitX=1;exitY=1;exitDx=0;exitDy=0;entryX=0;entryY=0;entryDx=0;entryDy=0;" edge="1" parent="1" source="s1E7Z7htaCoj7KjWzEhG-54" target="s1E7Z7htaCoj7KjWzEhG-56">
          <mxGeometry width="50" height="50" relative="1" as="geometry">
            <mxPoint x="680" y="400" as="sourcePoint" />
            <mxPoint x="706" y="456" as="targetPoint" />
          </mxGeometry>
        </mxCell>
        <mxCell id="s1E7Z7htaCoj7KjWzEhG-81" value="" style="endArrow=none;html=1;rounded=0;exitX=0;exitY=1;exitDx=0;exitDy=0;entryX=1;entryY=0;entryDx=0;entryDy=0;" edge="1" parent="1" source="s1E7Z7htaCoj7KjWzEhG-56" target="s1E7Z7htaCoj7KjWzEhG-67">
          <mxGeometry width="50" height="50" relative="1" as="geometry">
            <mxPoint x="730" y="390" as="sourcePoint" />
            <mxPoint x="786" y="462" as="targetPoint" />
          </mxGeometry>
        </mxCell>
        <mxCell id="s1E7Z7htaCoj7KjWzEhG-82" value="" style="endArrow=none;html=1;rounded=0;exitX=0.5;exitY=1;exitDx=0;exitDy=0;entryX=0.5;entryY=0;entryDx=0;entryDy=0;" edge="1" parent="1" source="s1E7Z7htaCoj7KjWzEhG-56" target="s1E7Z7htaCoj7KjWzEhG-65">
          <mxGeometry width="50" height="50" relative="1" as="geometry">
            <mxPoint x="796" y="440" as="sourcePoint" />
            <mxPoint x="760" y="502" as="targetPoint" />
          </mxGeometry>
        </mxCell>
        <mxCell id="s1E7Z7htaCoj7KjWzEhG-83" value="" style="endArrow=none;html=1;rounded=0;exitX=1;exitY=1;exitDx=0;exitDy=0;entryX=0.5;entryY=0;entryDx=0;entryDy=0;" edge="1" parent="1" source="s1E7Z7htaCoj7KjWzEhG-56" target="s1E7Z7htaCoj7KjWzEhG-66">
          <mxGeometry width="50" height="50" relative="1" as="geometry">
            <mxPoint x="839.58" y="430" as="sourcePoint" />
            <mxPoint x="839.58" y="480" as="targetPoint" />
          </mxGeometry>
        </mxCell>
        <mxCell id="s1E7Z7htaCoj7KjWzEhG-84" value="" style="endArrow=none;html=1;rounded=0;exitX=1;exitY=1;exitDx=0;exitDy=0;entryX=0;entryY=0;entryDx=0;entryDy=0;" edge="1" parent="1" source="s1E7Z7htaCoj7KjWzEhG-52" target="s1E7Z7htaCoj7KjWzEhG-54">
          <mxGeometry width="50" height="50" relative="1" as="geometry">
            <mxPoint x="660" y="412" as="sourcePoint" />
            <mxPoint x="712" y="340" as="targetPoint" />
          </mxGeometry>
        </mxCell>
      </root>
    </mxGraphModel>
  </diagram>
</mxfile>
